<?xml version="1.0" ?><!-- Uploaded to: SVG Repo, www.svgrepo.com, Generator: SVG Repo Mixer Tools -->
<svg fill="#000000" width="800px" height="800px" viewBox="0 0 64 64" data-name="Layer 1" id="Layer_1" xmlns="http://www.w3.org/2000/svg"><path d="M23,53c8.626,0,17.76-.6816,19.6425-8.0191C52.2822,44.844,61,43.2909,61,34c0-4.6533-2.2139-10.374-5.7773-14.93-8.352-10.894-20.5544-10.6024-28.7294.3836C13.7992,16.0228,2.8934,31.9585,3,42,3,52.15,13.3237,53,23,53ZM41.58,34.8416A28.7807,28.7807,0,0,0,39.0126,29.61a22.3084,22.3084,0,0,1,1.9879-7.28A21.3189,21.3189,0,0,1,43,30C43,31.3146,42.851,34.152,41.58,34.8416Zm1.0418,3.6457c-.1162-.5751-.2506-1.1414-.4092-1.71C43.56,36.2546,45,34.6176,45,30s-2.9917-10.2363-3.1191-10.4736a1.0409,1.0409,0,0,0-1.7618.0005,31.6093,31.6093,0,0,0-2.8071,7.6556,26.19,26.19,0,0,0-3.7687-3.9551C40.9566,9.2941,50.57,21.8374,51,32.5c0,5.0335-3.02,6.2755-8.2769,6.4682C42.6954,38.8094,42.6531,38.6472,42.6213,38.4873ZM41,13c9.936,0,18,12.707,18,21,0,7.1257-6.1027,8.8058-16.0355,8.98a12.7366,12.7366,0,0,0-.0136-2.02C48.0855,40.7362,53,39.35,53,32.5,52.6834,20.0244,40.7011,6.4526,31.9385,21.9978A18.0178,18.0178,0,0,0,28.5,20.1168C32.1108,15.5766,36.61,13,41,13ZM23,21a12.1785,12.1785,0,0,1,3.5717.5474C34.8234,24.2667,41.8892,35.1328,40.83,43.82,39.7969,49.76,33.4005,50.999,23,51,11.6,51,5,49.5273,5,42,5,33.707,13.064,21,23,21Z"/><path d="M23,49c4.1938,0,12,0,12-8.5C35,33.6162,29.8472,23,23,23S11,33.6162,11,40.5C11,49,18.8062,49,23,49Zm0-24c5.4233,0,10,9.52,10,15.5,0,5.4644-3.5146,6.5-10,6.5s-10-1.0356-10-6.5C13,34.5205,17.5767,25,23,25Z"/><path d="M23,45c1.4937,0,4-.9092,4-7,0-4.6172-2.9917-10.2363-3.1191-10.4736a1.0409,1.0409,0,0,0-1.7618,0C21.9917,27.7637,19,33.3828,19,38,19,44.0908,21.5063,45,23,45Zm0-14.6719A21.3217,21.3217,0,0,1,25,38c0,1.5034-.1948,5-2,5s-2-3.4966-2-5A21.3217,21.3217,0,0,1,23,30.3281Z"/><path d="M30,41a1,1,0,0,0,0,2A1,1,0,0,0,30,41Z"/><path d="M16,43a1,1,0,0,0,0-2A1,1,0,0,0,16,43Z"/><path d="M29,38a1,1,0,0,0,2,0A1,1,0,0,0,29,38Z"/><path d="M16,39a1,1,0,0,0,0-2A1,1,0,0,0,16,39Z"/><path d="M29,35a1,1,0,0,0,0-2A1,1,0,0,0,29,35Z"/><path d="M48,33a1,1,0,0,0,0,2A1,1,0,0,0,48,33Z"/><path d="M48,29a1,1,0,0,0,0,2A1,1,0,0,0,48,29Z"/><path d="M48,26a1,1,0,0,0-2,0A1,1,0,0,0,48,26Z"/><path d="M17,35a1,1,0,0,0,0-2A1,1,0,0,0,17,35Z"/></svg>